<svg width="206" height="206" viewBox="0 0 206 206" fill="none" xmlns="http://www.w3.org/2000/svg">
<rect x="9.2948" y="9" width="187.984" height="187.984" rx="41.5" stroke="#BA1A1A" stroke-width="17"/>
<path d="M50.6513 75.6053C49.0892 74.0432 49.0892 71.5105 50.6513 69.9484L70.243 50.3567C71.8051 48.7947 74.3377 48.7947 75.8998 50.3567L155.923 130.38C157.485 131.942 157.485 134.474 155.923 136.036L136.331 155.628C134.769 157.19 132.236 157.19 130.674 155.628L50.6513 75.6053Z" fill="#BA1A1A"/>
<path d="M155.923 75.6053C157.485 74.0432 157.485 71.5105 155.923 69.9484L136.331 50.3567C134.769 48.7947 132.236 48.7947 130.674 50.3567L50.6514 130.38C49.0893 131.942 49.0893 134.474 50.6514 136.036L70.243 155.628C71.8051 157.19 74.3378 157.19 75.8999 155.628L155.923 75.6053Z" fill="#BA1A1A"/>
</svg>
