<svg width="746" height="419" viewBox="0 0 746 419" fill="none" xmlns="http://www.w3.org/2000/svg">
<rect width="745" height="419" transform="translate(0.796875)" fill="#2C638B"/>
<g filter="url(#filter0_dd_575_56)">
<path d="M316.096 266.291C313.887 266.291 312.096 264.5 312.096 262.291V252.784C312.096 245.495 313.811 238.957 317.242 233.168C320.886 227.166 325.603 222.449 331.391 219.019C337.394 215.589 343.932 213.874 351.007 213.874H439.119C442.549 213.874 445.443 212.695 447.802 210.336C450.374 207.764 451.66 204.762 451.66 201.332V138.946C451.66 135.516 450.374 132.622 447.802 130.264C445.443 127.691 442.549 126.405 439.119 126.405H276.864C274.655 126.405 272.864 124.614 272.864 122.405V103.4C272.864 101.188 274.66 99.3961 276.872 99.4003L439.119 99.7142C446.194 99.7142 452.625 101.536 458.414 105.181C464.416 108.611 469.133 113.328 472.563 119.33C476.207 125.119 478.03 131.657 478.03 138.946V201.332C478.03 208.407 476.207 214.946 472.563 220.948C469.133 226.737 464.416 231.453 458.414 235.098C452.625 238.528 446.194 240.243 439.119 240.243H351.007C347.577 240.243 344.576 241.529 342.003 244.102C339.645 246.46 338.466 249.354 338.466 252.784V262.291C338.466 264.5 336.675 266.291 334.466 266.291H316.096ZM316.096 330.928C313.887 330.928 312.096 329.137 312.096 326.928V308.558C312.096 306.349 313.887 304.558 316.096 304.558H334.466C336.675 304.558 338.466 306.349 338.466 308.558V326.928C338.466 329.137 336.675 330.928 334.466 330.928H316.096Z" fill="#FFDEA4"/>
</g>
<defs>
<filter id="filter0_dd_575_56" x="261.864" y="92.4004" width="227.166" height="253.527" filterUnits="userSpaceOnUse" color-interpolation-filters="sRGB">
<feFlood flood-opacity="0" result="BackgroundImageFix"/>
<feColorMatrix in="SourceAlpha" type="matrix" values="0 0 0 0 0 0 0 0 0 0 0 0 0 0 0 0 0 0 127 0" result="hardAlpha"/>
<feOffset dy="1"/>
<feGaussianBlur stdDeviation="1.5"/>
<feColorMatrix type="matrix" values="0 0 0 0 0 0 0 0 0 0 0 0 0 0 0 0 0 0 0.3 0"/>
<feBlend mode="normal" in2="BackgroundImageFix" result="effect1_dropShadow_575_56"/>
<feColorMatrix in="SourceAlpha" type="matrix" values="0 0 0 0 0 0 0 0 0 0 0 0 0 0 0 0 0 0 127 0" result="hardAlpha"/>
<feMorphology radius="3" operator="dilate" in="SourceAlpha" result="effect2_dropShadow_575_56"/>
<feOffset dy="4"/>
<feGaussianBlur stdDeviation="4"/>
<feColorMatrix type="matrix" values="0 0 0 0 0 0 0 0 0 0 0 0 0 0 0 0 0 0 0.15 0"/>
<feBlend mode="normal" in2="effect1_dropShadow_575_56" result="effect2_dropShadow_575_56"/>
<feBlend mode="normal" in="SourceGraphic" in2="effect2_dropShadow_575_56" result="shape"/>
</filter>
</defs>
</svg>
