<svg width="745" height="419" viewBox="0 0 745 419" fill="none" xmlns="http://www.w3.org/2000/svg">
<rect width="745" height="419" fill="#794F81"/>
<g filter="url(#filter0_dd_575_54)">
<path d="M315.299 266.291C313.09 266.291 311.299 264.5 311.299 262.291V252.784C311.299 245.495 313.015 238.957 316.445 233.168C320.089 227.166 324.806 222.449 330.594 219.019C336.597 215.589 343.136 213.874 350.21 213.874H438.322C441.752 213.874 444.646 212.695 447.005 210.336C449.577 207.764 450.864 204.762 450.864 201.332V138.946C450.864 135.516 449.577 132.622 447.005 130.264C444.646 127.691 441.752 126.405 438.322 126.405H276.067C273.858 126.405 272.067 124.614 272.067 122.405V103.4C272.067 101.188 273.863 99.3961 276.075 99.4003L438.322 99.7142C445.397 99.7142 451.828 101.536 457.617 105.181C463.619 108.611 468.336 113.328 471.766 119.33C475.411 125.119 477.233 131.657 477.233 138.946V201.332C477.233 208.407 475.411 214.946 471.766 220.948C468.336 226.737 463.619 231.453 457.617 235.098C451.828 238.528 445.397 240.243 438.322 240.243H350.21C346.78 240.243 343.779 241.529 341.206 244.102C338.848 246.46 337.669 249.354 337.669 252.784V262.291C337.669 264.5 335.878 266.291 333.669 266.291H315.299ZM315.299 330.928C313.09 330.928 311.299 329.137 311.299 326.928V308.558C311.299 306.349 313.09 304.558 315.299 304.558H333.669C335.878 304.558 337.669 306.349 337.669 308.558V326.928C337.669 329.137 335.878 330.928 333.669 330.928H315.299Z" fill="#FFDEA4"/>
</g>
<defs>
<filter id="filter0_dd_575_54" x="261.067" y="92.4004" width="227.166" height="253.527" filterUnits="userSpaceOnUse" color-interpolation-filters="sRGB">
<feFlood flood-opacity="0" result="BackgroundImageFix"/>
<feColorMatrix in="SourceAlpha" type="matrix" values="0 0 0 0 0 0 0 0 0 0 0 0 0 0 0 0 0 0 127 0" result="hardAlpha"/>
<feOffset dy="1"/>
<feGaussianBlur stdDeviation="1.5"/>
<feColorMatrix type="matrix" values="0 0 0 0 0 0 0 0 0 0 0 0 0 0 0 0 0 0 0.3 0"/>
<feBlend mode="normal" in2="BackgroundImageFix" result="effect1_dropShadow_575_54"/>
<feColorMatrix in="SourceAlpha" type="matrix" values="0 0 0 0 0 0 0 0 0 0 0 0 0 0 0 0 0 0 127 0" result="hardAlpha"/>
<feMorphology radius="3" operator="dilate" in="SourceAlpha" result="effect2_dropShadow_575_54"/>
<feOffset dy="4"/>
<feGaussianBlur stdDeviation="4"/>
<feColorMatrix type="matrix" values="0 0 0 0 0 0 0 0 0 0 0 0 0 0 0 0 0 0 0.15 0"/>
<feBlend mode="normal" in2="effect1_dropShadow_575_54" result="effect2_dropShadow_575_54"/>
<feBlend mode="normal" in="SourceGraphic" in2="effect2_dropShadow_575_54" result="shape"/>
</filter>
</defs>
</svg>
