<svg width="106" height="107" viewBox="0 0 106 107" fill="none" xmlns="http://www.w3.org/2000/svg">
<rect x="0.120789" y="0.78125" width="105.758" height="105.758" rx="10" fill="#2C638B"/>
<path d="M77.9104 41.3921C77.9104 41.1482 77.9104 41.0262 77.9061 40.9232C77.7988 38.365 75.7458 36.3174 73.1873 36.2168C73.0843 36.2128 72.9624 36.2131 72.7185 36.2137L40.8083 36.2976C38.4258 36.3039 37.2345 36.307 36.2716 36.7444C35.423 37.1299 34.7014 37.7488 34.191 38.5288C33.612 39.4137 33.4273 40.5906 33.058 42.9443L27.9026 75.7988C27.5556 78.0105 25.6501 79.6403 23.4114 79.6403C20.6146 79.6403 18.4811 77.1391 18.922 74.3773L25.3202 34.2994C25.6958 31.9467 25.8836 30.7703 26.465 29.8869C26.9774 29.1083 27.7006 28.4914 28.5503 28.1082C29.5142 27.6733 30.7055 27.6733 33.088 27.6733H78.8389C82.0109 27.6733 83.5969 27.6733 84.7292 28.3193C85.723 28.8862 86.488 29.782 86.8923 30.8523C87.353 32.0719 87.1047 33.6383 86.608 36.7711L85.5697 43.3204C85.273 45.1922 83.6591 46.5704 81.7638 46.5704C79.6357 46.5704 77.9104 44.8452 77.9104 42.717V41.3921Z" fill="#FFDEA4"/>
<path fill-rule="evenodd" clip-rule="evenodd" d="M69.6655 39.5992H72.8486C74.3431 39.5999 75.4904 40.9232 75.2803 42.4031L70.292 77.535C70.1192 78.7487 69.0791 79.6504 67.853 79.6475L36.4707 79.5587H33.29C31.7951 79.5586 30.6458 78.2349 30.8559 76.7548L36.3699 41.6445C36.5425 40.4308 37.583 39.5294 38.8089 39.532L69.6655 39.5992ZM44.0229 46.5872C43.5706 46.5872 43.1857 46.9158 43.1154 47.3626L39.3418 71.3632C39.2404 72.0085 39.74 72.5923 40.3932 72.5923L51.8006 72.5947C60.1848 72.5952 66.9838 65.7978 66.984 57.4137C66.984 51.4349 62.1364 46.5878 56.1576 46.5872H44.0229Z" fill="#FFDEA4"/>
</svg>
