<svg width="26" height="20" viewBox="0 0 26 20" fill="none" xmlns="http://www.w3.org/2000/svg">
<g clip-path="url(#clip0_624_87)">
<path d="M25 3.4566V17.3656C25 18.2696 24.268 19.0016 23.364 19.0016H19.545V9.7296L13 14.6396L6.455 9.7296V19.0026H2.636C2.42107 19.0026 2.20825 18.9603 2.0097 18.878C1.81115 18.7957 1.63075 18.6751 1.47882 18.5231C1.32689 18.3711 1.2064 18.1906 1.12425 17.992C1.04209 17.7934 0.999869 17.5805 1 17.3656V3.4566C1 1.4336 3.309 0.278601 4.927 1.4926L6.455 2.6396L13 7.5476L19.545 2.6376L21.073 1.4926C22.69 0.279601 25 1.4336 25 3.4566Z" stroke="white" stroke-width="2" stroke-linejoin="round"/>
</g>
<defs>
<clipPath id="clip0_624_87">
<rect width="26" height="20" fill="white"/>
</clipPath>
</defs>
</svg>
