<svg width="206" height="233" viewBox="0 0 206 233" fill="none" xmlns="http://www.w3.org/2000/svg">
<path opacity="0.25" d="M43.4303 167.703C41.2212 167.703 39.4303 165.912 39.4303 163.703V154.197C39.4303 146.908 41.1454 140.369 44.5755 134.58C48.2201 128.578 52.9365 123.861 58.7249 120.431C64.7277 117.001 71.2664 115.286 78.3411 115.286H166.453C169.883 115.286 172.777 114.107 175.136 111.749C177.708 109.176 178.994 106.175 178.994 102.744V40.3586C178.994 36.9284 177.708 34.0342 175.136 31.676C172.777 29.1034 169.883 27.8171 166.453 27.8171H4.198C1.98886 27.8171 0.197998 26.0262 0.197998 23.8171V4.81243C0.197998 2.60027 1.99358 0.808161 4.20573 0.812439L166.453 1.12626C173.528 1.12626 179.959 2.94853 185.748 6.59306C191.75 10.0232 196.467 14.7397 199.897 20.7424C203.541 26.5308 205.364 33.0695 205.364 40.3586V102.744C205.364 109.819 203.541 116.358 199.897 122.361C196.467 128.149 191.75 132.865 185.748 136.51C179.959 139.94 173.528 141.655 166.453 141.655H78.3411C74.9109 141.655 71.9095 142.941 69.3369 145.514C66.9787 147.872 65.7996 150.766 65.7996 154.197V163.703C65.7996 165.912 64.0087 167.703 61.7996 167.703H43.4303ZM43.4303 232.34C41.2212 232.34 39.4303 230.549 39.4303 228.34V209.97C39.4303 207.761 41.2212 205.97 43.4303 205.97H61.7996C64.0087 205.97 65.7996 207.761 65.7996 209.97V228.34C65.7996 230.549 64.0087 232.34 61.7996 232.34H43.4303Z" fill="#F7F9FF"/>
</svg>
