<svg width="220" height="241" viewBox="0 0 220 241" fill="none" xmlns="http://www.w3.org/2000/svg">
<g filter="url(#filter0_dd_625_87)">
<path d="M62.5194 161.401C60.7522 161.401 59.3194 159.968 59.3194 158.201V150.596C59.3194 144.765 60.6915 139.534 63.4356 134.903C66.3513 130.101 70.1244 126.328 74.7551 123.583C79.5574 120.839 84.7883 119.467 90.448 119.467H160.938C163.682 119.467 165.997 118.524 167.884 116.638C169.942 114.579 170.97 112.178 170.97 109.434V59.5256C170.97 56.7814 169.942 54.4661 167.884 52.5795C165.997 50.5214 163.682 49.4924 160.938 49.4924H31.1336C29.3663 49.4924 27.9336 48.0596 27.9336 46.2924V31.0886C27.9336 29.3189 29.3701 27.8852 31.1398 27.8887L160.938 28.1397C166.598 28.1397 171.742 29.5975 176.374 32.5132C181.175 35.2572 184.949 39.0304 187.693 43.8326C190.608 48.4633 192.066 53.6943 192.066 59.5256V109.434C192.066 115.094 190.608 120.325 187.693 125.127C184.949 129.758 181.175 133.531 176.374 136.446C171.742 139.19 166.598 140.562 160.938 140.562H90.448C87.7039 140.562 85.3028 141.592 83.2447 143.65C81.3582 145.537 80.4149 147.852 80.4149 150.596V158.201C80.4149 159.968 78.9822 161.401 77.2149 161.401H62.5194ZM62.5194 213.11C60.7522 213.11 59.3194 211.678 59.3194 209.91V195.215C59.3194 193.448 60.7522 192.015 62.5194 192.015H77.2149C78.9822 192.015 80.4149 193.448 80.4149 195.215V209.91C80.4149 211.678 78.9822 213.11 77.2149 213.11H62.5194Z" fill="#FFDEA4"/>
</g>
<defs>
<filter id="filter0_dd_625_87" x="21.5336" y="24.6887" width="176.933" height="198.022" filterUnits="userSpaceOnUse" color-interpolation-filters="sRGB">
<feFlood flood-opacity="0" result="BackgroundImageFix"/>
<feColorMatrix in="SourceAlpha" type="matrix" values="0 0 0 0 0 0 0 0 0 0 0 0 0 0 0 0 0 0 127 0" result="hardAlpha"/>
<feOffset dy="0.8"/>
<feGaussianBlur stdDeviation="1.2"/>
<feColorMatrix type="matrix" values="0 0 0 0 0 0 0 0 0 0 0 0 0 0 0 0 0 0 0.3 0"/>
<feBlend mode="normal" in2="BackgroundImageFix" result="effect1_dropShadow_625_87"/>
<feColorMatrix in="SourceAlpha" type="matrix" values="0 0 0 0 0 0 0 0 0 0 0 0 0 0 0 0 0 0 127 0" result="hardAlpha"/>
<feOffset dy="3.2"/>
<feGaussianBlur stdDeviation="3.2"/>
<feColorMatrix type="matrix" values="0 0 0 0 0 0 0 0 0 0 0 0 0 0 0 0 0 0 0.15 0"/>
<feBlend mode="normal" in2="effect1_dropShadow_625_87" result="effect2_dropShadow_625_87"/>
<feBlend mode="normal" in="SourceGraphic" in2="effect2_dropShadow_625_87" result="shape"/>
</filter>
</defs>
</svg>

