<svg width="28" height="28" viewBox="0 0 28 28" fill="none" xmlns="http://www.w3.org/2000/svg">
<g clip-path="url(#clip0_261_192)">
<path d="M24.0186 8.89389C24.0186 8.79467 24.0186 8.74507 24.0169 8.70317C23.9732 7.66244 23.1381 6.82948 22.0972 6.78855C22.0553 6.7869 22.0057 6.78703 21.9065 6.78729L8.92516 6.82143C7.95592 6.82398 7.4713 6.82526 7.0796 7.00319C6.73436 7.16002 6.44081 7.41176 6.23319 7.72907C5.99764 8.08907 5.92251 8.56784 5.77226 9.52537L3.67501 22.8909C3.53383 23.7906 2.75866 24.4536 1.84792 24.4536C0.710191 24.4536 -0.157764 23.4361 0.0215979 22.3126L2.62447 6.00851C2.77726 5.05142 2.85366 4.57287 3.09016 4.2135C3.29862 3.89676 3.59282 3.64579 3.93847 3.48988C4.33063 3.31299 4.81524 3.31299 5.78445 3.31299H24.3964C25.6867 3.31299 26.3319 3.31299 26.7926 3.57577C27.1969 3.8064 27.5081 4.17081 27.6726 4.60623C27.86 5.10235 27.7589 5.73959 27.5569 7.01405L27.1345 9.67835C27.0138 10.4398 26.3572 11.0005 25.5862 11.0005C24.7205 11.0005 24.0186 10.2987 24.0186 9.43289V8.89389Z" fill="white"/>
<path fill-rule="evenodd" clip-rule="evenodd" d="M20.6645 8.16455H21.9594C22.5674 8.16481 23.0341 8.70317 22.9487 9.30518L20.9194 23.5972C20.8491 24.0909 20.426 24.4577 19.9272 24.4565L7.1606 24.4204H5.86665C5.2585 24.4204 4.79098 23.8819 4.87642 23.2798L7.11958 8.99658C7.18979 8.50285 7.61308 8.13615 8.11177 8.13721L20.6645 8.16455ZM10.2329 11.0073C10.0489 11.0073 9.89229 11.141 9.86372 11.3228L8.32857 21.0864C8.28731 21.3489 8.49057 21.5864 8.7563 21.5864L13.3969 21.5874C16.8077 21.5876 19.5736 18.8224 19.5737 15.4116C19.5737 12.9794 17.6016 11.0075 15.1694 11.0073H10.2329Z" fill="white"/>
</g>
<defs>
<clipPath id="clip0_261_192">
<rect width="27.77" height="27.77" fill="white"/>
</clipPath>
</defs>
</svg>
